<svg width="50" height="50" viewBox="0 0 50 50" fill="none" xmlns="http://www.w3.org/2000/svg">
<path d="M13.9531 0C12.3219 0 10.9375 1.26563 10.9375 2.87188V47.1281C10.9375 48.7344 12.3219 50 13.9531 50H37.6094C39.2406 50 40.625 48.7344 40.625 47.1281V2.87188C40.625 1.26563 39.2406 0 37.6094 0H13.9531ZM13.9531 1.5625H37.6094C38.4562 1.5625 39.0625 2.1625 39.0625 2.87188V47.1281C39.0625 47.8391 38.4562 48.4375 37.6094 48.4375H13.9531C13.1063 48.4375 12.5 47.8391 12.5 47.1281V2.87188C12.5 2.1625 13.1063 1.5625 13.9531 1.5625ZM28.1219 3.12188L23.4344 3.1375L23.4406 4.7L28.1281 4.68437L28.1219 3.12188ZM14.7891 3.14062C14.5918 3.15433 14.407 3.24162 14.2722 3.38487C14.1374 3.52813 14.0624 3.71669 14.0625 3.9125C14.0623 4.0142 14.0823 4.11494 14.1215 4.20896C14.1607 4.30298 14.2182 4.38843 14.2908 4.46041C14.3633 4.5324 14.4495 4.58951 14.5444 4.62848C14.6393 4.66744 14.741 4.6875 14.8438 4.6875C14.9465 4.6875 15.0482 4.66744 15.1431 4.62848C15.238 4.58951 15.3242 4.5324 15.3967 4.46041C15.4693 4.38843 15.5268 4.30298 15.566 4.20896C15.6052 4.11494 15.6252 4.0142 15.625 3.9125C15.6246 3.70764 15.5421 3.51132 15.3956 3.36661C15.2492 3.2219 15.0507 3.14062 14.8438 3.14062C14.8255 3.13999 14.8073 3.13999 14.7891 3.14062ZM14.0625 6.25V40.625H37.5V6.25H14.0625ZM15.625 7.8125H35.9375V39.0625H15.625V7.8125ZM25.7875 42.1875C24.4984 42.1875 23.4281 43.2422 23.4281 44.5312C23.4281 45.8203 24.4984 46.875 25.7875 46.875C27.0766 46.875 28.1469 45.8203 28.1469 44.5312C28.1469 43.2422 27.0766 42.1875 25.7875 42.1875ZM25.7875 43.75C26.2406 43.75 26.5844 44.0938 26.5844 44.5312C26.5844 44.9688 26.2406 45.3125 25.7875 45.3125C25.3344 45.3125 24.9906 44.9688 24.9906 44.5312C24.9906 44.0938 25.3344 43.75 25.7875 43.75Z" fill="black"/>
</svg>
