<svg width="50" height="50" viewBox="0 0 50 50" fill="none" xmlns="http://www.w3.org/2000/svg">
<path d="M1.95595 22.8376C2.67233 24.0618 3.96418 24.745 5.28951 24.745C5.94939 24.745 6.61834 24.5755 7.22799 24.2187C7.90029 23.8257 8.40545 23.2568 8.72793 22.606L17.6474 24.9649C17.5214 26.0612 17.7296 27.2046 18.328 28.2282C18.328 28.2286 18.328 28.2286 18.328 28.2286C18.4105 28.3695 18.5062 28.4975 18.5993 28.6279L10.7902 36.3637C9.74674 35.8702 8.48523 35.8805 7.41493 36.5056C6.58137 36.9929 5.98706 37.7759 5.74222 38.7106C5.49738 39.6446 5.63061 40.6183 6.1182 41.4519C6.1182 41.4523 6.1182 41.4523 6.1182 41.4523C6.60578 42.2862 7.38912 42.8801 8.32313 43.125C8.62866 43.2048 8.93837 43.2446 9.24599 43.2446C9.87936 43.2446 10.5037 43.0765 11.0652 42.7483C11.8987 42.2607 12.4931 41.4777 12.7379 40.5437C12.9827 39.6093 12.8488 38.6356 12.3612 37.8017C12.2398 37.5939 12.0991 37.4045 11.9453 37.2308L19.5793 29.6684C20.2964 30.2449 21.1442 30.6179 22.037 30.7651L20.4353 40.6017C20.1183 40.6698 19.8081 40.775 19.5201 40.9434C18.0511 41.8024 17.5551 43.6966 18.4138 45.166C18.9872 46.1467 20.0217 46.694 21.084 46.694C21.6128 46.694 22.1485 46.5579 22.6368 46.2726C24.1058 45.4129 24.6017 43.5187 23.7431 42.0497C23.3298 41.3437 22.668 40.8406 21.8788 40.6284L23.4779 30.8069C24.1911 30.7281 24.8991 30.5076 25.5574 30.1227C26.3181 29.6779 26.9422 29.0647 27.391 28.3347L42.4033 32.4276C42.3745 33.0187 42.5135 33.6064 42.8195 34.1291C43.2352 34.8413 43.9042 35.3484 44.7022 35.5573C44.9624 35.6257 45.2267 35.6595 45.4897 35.6595C46.0303 35.6595 46.5632 35.5162 47.0424 35.2361C47.7539 34.82 48.2618 34.1514 48.4703 33.3538C48.6796 32.5561 48.5652 31.7247 48.1488 31.0132C47.7323 30.3017 47.0641 29.7945 46.2668 29.5856C45.4674 29.376 44.638 29.4904 43.9265 29.9069C43.4483 30.1865 43.0731 30.587 42.8079 31.0572L27.9674 27.0112C27.978 26.9739 27.9924 26.9381 28.0023 26.9004C28.3421 25.6037 28.1772 24.257 27.5497 23.0809L34.7589 18.8654C35.3291 19.5507 36.0879 20.0483 36.9678 20.279C37.3319 20.3746 37.7016 20.4216 38.0685 20.4216C38.824 20.4216 39.569 20.2214 40.2379 19.8301C41.2326 19.2484 41.9413 18.3144 42.2329 17.2C42.5251 16.0857 42.3654 14.9243 41.7837 13.9299C40.5839 11.8781 37.9381 11.1837 35.8838 12.3838C34.0421 13.4615 33.2998 15.7024 34.0331 17.6348L26.7112 21.9161C26.1522 21.328 25.468 20.8752 24.6955 20.5958L23.8427 10.4248C24.1676 10.3421 24.4834 10.2165 24.781 10.0425C26.5018 9.03666 27.0836 6.81777 26.0777 5.09589C25.0705 3.37504 22.8509 2.79399 21.1308 3.79985C20.2972 4.28743 19.7029 5.07043 19.458 6.00479C19.2132 6.93915 19.3471 7.91292 19.8347 8.74649C20.3223 9.58005 21.1056 10.174 22.0397 10.4188C22.1643 10.4516 22.2899 10.473 22.4154 10.4922L23.2367 20.2881C22.1903 20.2171 21.1477 20.4583 20.2225 20.9992C19.175 21.6116 18.4214 22.5334 17.999 23.5801L9.11245 21.2299C9.18159 20.4601 9.02866 19.6637 8.60983 18.947C8.09016 18.0584 7.25519 17.4253 6.2598 17.1645C5.2637 16.9025 4.22576 17.0459 3.33778 17.5655C1.50394 18.6377 0.883821 21.0027 1.95595 22.8372C1.95595 22.8376 1.95595 22.8376 1.95595 22.8376ZM11.3561 40.1813C11.2075 40.7467 10.8482 41.2203 10.3439 41.515C9.8396 41.8098 9.25157 41.8907 8.68516 41.7428C8.12015 41.5949 7.64652 41.2357 7.35146 40.7313C7.05639 40.2267 6.97618 39.6376 7.12406 39.0726C7.27194 38.5072 7.63117 38.0336 8.13619 37.7389C9.17693 37.1303 10.519 37.4818 11.128 38.5229C11.423 39.0272 11.5039 39.6163 11.3561 40.1813ZM22.5098 42.771C22.9709 43.5599 22.7044 44.5776 21.9155 45.0394C21.128 45.5005 20.1095 45.235 19.6471 44.4447C19.186 43.6555 19.4525 42.6381 20.2414 42.1767C20.4902 42.031 20.7669 41.9576 21.0472 41.9527C21.0501 41.9528 21.0532 41.9534 21.0561 41.9534C21.0641 41.9534 21.0711 41.9496 21.079 41.9493C21.2189 41.9496 21.3599 41.9674 21.4991 42.004C21.9273 42.116 22.2866 42.3884 22.5098 42.771ZM43.8805 32.1512C43.9928 31.7226 44.2648 31.3637 44.6478 31.1401C44.9052 30.9894 45.1912 30.9127 45.482 30.9127C45.6229 30.9127 45.7645 30.9308 45.9047 30.9675C46.333 31.0798 46.6923 31.3522 46.9155 31.7344C47.1394 32.117 47.2008 32.5634 47.0885 32.9917C46.9762 33.42 46.7041 33.7793 46.3212 34.0028C45.9389 34.2264 45.4918 34.2881 45.0642 34.1755C44.6352 34.0632 44.276 33.7908 44.0528 33.4085C44.0528 33.4082 44.0528 33.4082 44.0528 33.4082C43.8296 33.0259 43.7682 32.5795 43.8805 32.1512ZM36.6051 13.6171C37.0613 13.3503 37.5614 13.2233 38.056 13.2233C39.0479 13.2233 40.0147 13.735 40.5504 14.6512C40.9396 15.3163 41.0463 16.093 40.851 16.838C40.6557 17.5833 40.1821 18.208 39.5166 18.5969C38.8533 18.9847 38.0755 19.0925 37.3298 18.8972C36.5849 18.7018 35.9599 18.2279 35.5713 17.5628C34.7684 16.19 35.2323 14.42 36.6051 13.6171ZM21.068 8.02522C20.7729 7.5209 20.692 6.93217 20.8399 6.36681C20.9885 5.8018 21.3477 5.32782 21.852 5.03311C22.198 4.83047 22.5775 4.73456 22.9527 4.73456C23.7047 4.73456 24.4378 5.12239 24.8445 5.8168C25.4527 6.85823 25.1012 8.20066 24.0597 8.80926C23.0197 9.41962 21.6776 9.06631 21.068 8.02522ZM20.9438 22.2325C21.8325 21.7131 22.8718 21.5701 23.8679 21.831C24.864 22.0923 25.699 22.7256 26.2186 23.6147C26.739 24.5037 26.8813 25.542 26.6204 26.5384C26.3589 27.5345 25.7255 28.3695 24.8361 28.8895C23.0002 29.9623 20.6348 29.3425 19.5613 27.5073C18.4885 25.6717 19.1086 23.3053 20.9438 22.2325ZM4.05904 18.7988C4.61778 18.4724 5.26928 18.3817 5.89777 18.5463C6.52417 18.7106 7.04942 19.1089 7.37657 19.6679C8.05109 20.8224 7.66117 22.3106 6.50673 22.9855C5.35369 23.6607 3.86443 23.2708 3.18921 22.1167C2.51468 20.9619 2.90461 19.4737 4.05904 18.7988Z" fill="black"/>
</svg>
