<svg xmlns="http://www.w3.org/2000/svg" width="2901" height="780" viewBox="0 0 2901 780" fill="none">
<rect x="12" y="12" width="2877" height="756" rx="108" fill="white" stroke="#eb5333" stroke-width="24"/>
<path d="M0 120C0 53.7258 53.7258 0 120 0H684V780H120C53.7258 780 0 726.274 0 660V120Z" fill="#eb5333"/>
<path d="M221 190V258.945H475V190H221Z" fill="white"/>
<path d="M221 365.896V582H302.073V434.957H458.156V365.896H221Z" fill="white"/>
<path d="M889.132 584V188.327H1033.59C1065.81 188.327 1092.46 193.816 1113.52 204.792C1134.59 215.768 1150.35 230.993 1160.79 250.467C1171.41 269.94 1176.72 292.601 1176.72 318.448C1176.72 343.587 1171.41 365.893 1160.79 385.367C1150.35 404.664 1134.41 419.8 1112.99 430.776C1091.75 441.576 1064.93 446.975 1032.53 446.975H939.056V387.226H1029.61C1047.49 387.226 1061.92 384.393 1072.89 378.728C1084.05 372.886 1092.19 364.831 1097.32 354.563C1102.46 344.118 1105.03 332.08 1105.03 318.448C1105.03 304.462 1102.46 292.335 1097.32 282.067C1092.19 271.799 1084.05 263.833 1072.89 258.168C1061.92 252.503 1047.4 249.67 1029.34 249.67H961.627V584H889.132ZM1294.1 588.514C1275.51 588.514 1258.96 585.416 1244.44 579.22C1229.92 573.024 1218.42 563.73 1209.92 551.337C1201.6 538.768 1197.44 523.189 1197.44 504.6C1197.44 488.667 1200.36 475.478 1206.2 465.033C1212.22 454.588 1220.36 446.267 1230.63 440.071C1240.9 433.698 1252.67 428.918 1265.95 425.731C1279.23 422.544 1293.04 420.154 1307.38 418.561C1324.73 416.614 1338.45 414.932 1348.54 413.516C1358.8 412.099 1366.06 409.886 1370.31 406.877C1374.74 403.867 1376.95 399.176 1376.95 392.803V390.944C1376.95 383.154 1374.91 376.338 1370.84 370.496C1366.95 364.477 1361.28 359.786 1353.85 356.422C1346.41 353.058 1337.47 351.376 1327.03 351.376C1316.4 351.376 1307.11 353.058 1299.14 356.422C1291.18 359.786 1284.8 364.477 1280.02 370.496C1275.42 376.338 1272.77 383.243 1272.06 391.209H1205.4C1206.47 373.683 1211.95 357.927 1221.87 343.941C1231.78 329.955 1245.68 318.802 1263.56 310.481C1281.44 301.984 1302.86 297.735 1327.82 297.735C1346.06 297.735 1362.43 300.036 1376.95 304.639C1391.47 309.242 1403.86 315.792 1414.13 324.29C1424.4 332.611 1432.19 342.436 1437.5 353.766C1442.98 365.097 1445.73 377.578 1445.73 391.209V584H1377.48V544.433H1376.42C1371.99 552.93 1366.24 560.543 1359.16 567.27C1352.08 573.821 1343.23 579.043 1332.6 582.938C1321.98 586.656 1309.15 588.514 1294.1 588.514ZM1311.89 537.794C1325.88 537.794 1337.74 535.227 1347.47 530.093C1357.39 524.959 1364.82 518.143 1369.78 509.645C1374.91 500.971 1377.48 491.234 1377.48 480.435V450.693C1375.36 451.932 1372.26 453.171 1368.19 454.411C1364.29 455.65 1359.6 456.801 1354.11 457.863C1348.63 458.925 1342.69 459.987 1336.32 461.049C1329.95 462.112 1323.4 463.174 1316.67 464.236C1307.29 465.475 1298.61 467.688 1290.65 470.875C1282.86 473.884 1276.57 478.045 1271.79 483.356C1267.19 488.49 1264.89 495.217 1264.89 503.538C1264.89 514.337 1269.14 522.746 1277.63 528.765C1286.13 534.784 1297.55 537.794 1311.89 537.794ZM1504.42 584V303.577H1571.33V350.314H1572.4C1577.53 334.027 1585.59 321.723 1596.56 313.402C1607.54 305.082 1622.14 300.922 1640.38 300.922C1644.8 300.922 1648.88 301.099 1652.59 301.453C1656.49 301.63 1659.76 301.807 1662.42 301.984V363.061C1659.94 362.707 1655.6 362.353 1649.41 361.999C1643.39 361.467 1637.01 361.202 1630.29 361.202C1619.84 361.202 1610.28 363.68 1601.61 368.637C1593.11 373.417 1586.38 380.676 1581.43 390.413C1576.47 399.972 1573.99 412.099 1573.99 426.793V584H1504.42ZM1857.6 303.577V359.077H1688.97V303.577H1857.6ZM1730.67 227.098H1800.24V497.164C1800.24 508.495 1802.63 516.55 1807.41 521.33C1812.19 526.11 1820.25 528.5 1831.58 528.5C1835.82 528.5 1840.34 528.5 1845.12 528.5C1849.9 528.5 1854.06 528.5 1857.6 528.5V584C1852.82 584 1846.8 584 1839.54 584C1832.28 584 1824.85 584 1817.24 584C1788.91 584 1767.4 577.627 1752.71 564.88C1738.01 551.957 1730.67 533.191 1730.67 508.583V227.098ZM1973.38 423.607V584H1903.81V303.577H1972.58V352.704L1973.38 351.908C1979.75 336.328 1990.11 323.405 2004.45 313.137C2018.79 302.869 2036.94 297.735 2058.89 297.735C2078.54 297.735 2096.33 302.161 2112.26 311.013C2128.2 319.687 2140.86 332.257 2150.24 348.721C2159.62 365.185 2164.31 385.19 2164.31 408.736V584H2094.74V419.358C2094.74 398.999 2089.34 383.508 2078.54 372.886C2067.92 362.264 2053.58 356.953 2035.52 356.953C2024.01 356.953 2013.57 359.343 2004.18 364.123C1994.8 368.903 1987.28 376.25 1981.61 386.164C1976.12 395.901 1973.38 408.382 1973.38 423.607ZM2347.81 590.373C2319.66 590.373 2295.23 584.089 2274.52 571.519C2253.98 558.95 2238.14 541.689 2226.98 519.736C2215.83 497.607 2210.25 472.38 2210.25 444.054C2210.25 415.552 2216.01 390.236 2227.51 368.106C2239.02 345.977 2254.87 328.627 2275.05 316.058C2295.41 303.489 2318.78 297.204 2345.15 297.204C2365.34 297.204 2383.66 300.745 2400.12 307.826C2416.76 314.907 2431.02 324.91 2442.88 337.833C2454.91 350.757 2464.12 366.159 2470.49 384.039C2477.04 401.743 2480.32 421.394 2480.32 442.992V461.581H2237.07V414.843H2445.8L2414.73 427.059C2414.73 411.657 2411.9 398.379 2406.23 387.226C2400.74 375.896 2392.86 367.221 2382.6 361.202C2372.33 355.006 2360.2 351.908 2346.22 351.908C2332.41 351.908 2320.37 355.006 2310.1 361.202C2300.01 367.221 2292.13 375.896 2286.47 387.226C2280.98 398.379 2278.23 411.657 2278.23 427.059V457.332C2278.23 472.911 2280.98 486.719 2286.47 498.758C2292.13 510.619 2300.28 519.825 2310.9 526.375C2321.52 532.925 2334.35 536.201 2349.4 536.201C2360.56 536.201 2370.38 534.607 2378.88 531.421C2387.38 528.057 2394.46 523.454 2400.12 517.612C2405.79 511.77 2409.86 504.865 2412.34 496.899H2476.87C2473.5 515.311 2465.71 531.509 2453.5 545.495C2441.46 559.481 2426.32 570.457 2408.09 578.423C2390.03 586.39 2369.94 590.373 2347.81 590.373ZM2524.67 584V303.577H2591.59V350.314H2592.65C2597.78 334.027 2605.84 321.723 2616.81 313.402C2627.79 305.082 2642.39 300.922 2660.63 300.922C2665.06 300.922 2669.13 301.099 2672.84 301.453C2676.74 301.63 2680.01 301.807 2682.67 301.984V363.061C2680.19 362.707 2675.85 362.353 2669.66 361.999C2663.64 361.467 2657.27 361.202 2650.54 361.202C2640.09 361.202 2630.53 363.68 2621.86 368.637C2613.36 373.417 2606.63 380.676 2601.68 390.413C2596.72 399.972 2594.24 412.099 2594.24 426.793V584H2524.67Z" fill="#eb5333"/>
</svg>